<?xml version="1.0" encoding="UTF-8"?>
<svg width="206px" height="49px" viewBox="0 0 206 49" version="1.1" xmlns="http://www.w3.org/2000/svg" xmlns:xlink="http://www.w3.org/1999/xlink">
    <!-- Generator: Sketch 52.6 (67491) - http://www.bohemiancoding.com/sketch -->
    <title>Group</title>
    <desc>Created with Sketch.</desc>
    <g id="Page-1" stroke="none" stroke-width="1" fill="none" fill-rule="evenodd">
        <g id="Group">
            <g id="heart-rate">
                <path d="M13.3333333,9.16666667 L36.6666667,9.16666667 C38.507487,9.16666667 40,10.6591797 40,12.5 L40,35.8333333 C40,37.6741536 38.507487,39.1666667 36.6666667,39.1666667 L13.3333333,39.1666667 C11.492513,39.1666667 10,37.6741536 10,35.8333333 L10,12.5 C10,10.6591797 11.492513,9.16666667 13.3333333,9.16666667 Z" id="Path" fill="#00D7DF"></path>
                <polygon id="Path" fill="#898890" points="15 0 35 0 35 9.16666667 15 9.16666667"></polygon>
                <polygon id="Path" fill="#898890" points="15.8333333 39.1666667 34.1666667 39.1666667 34.1666667 48.3333333 15.8333333 48.3333333"></polygon>
                <path d="M7.5,32.5 C7.44954427,32.5004069 7.39868167,32.4955241 7.34903969,32.4857584 C6.99503583,32.4206543 6.72281896,32.1358235 6.67399083,31.7789714 L4.78922521,17.9532877 L3.31258135,24.354248 C3.22509771,24.7322592 2.88818354,25.0004069 2.5,25 L0.833333333,25 C0.373128229,25 0,24.6268718 0,24.1666667 C0,23.7064616 0.373128229,23.3333333 0.833333333,23.3333333 L1.8375651,23.3333333 L4.18741865,13.145752 C4.27734375,12.7530925 4.63541667,12.4804687 5.03784177,12.4991862 C5.44067385,12.5174968 5.77229813,12.8214519 5.82600917,13.2210286 L7.98339844,29.0409343 L11.7683919,22.1008301 C11.9144694,21.8330892 12.1952311,21.6666667 12.5,21.6666667 L17.5,21.6666667 C17.9602051,21.6666667 18.3333333,22.0397949 18.3333333,22.5 C18.3333333,22.9602051 17.9602051,23.3333333 17.5,23.3333333 L12.9951985,23.3333333 L8.23160813,32.0658366 C8.08553063,32.3335775 7.80476885,32.5 7.5,32.5 Z" id="Path" fill="#3D9AE2"></path>
                <path d="M44.1666667,29.1666667 L44.16097,29.1666667 C43.8179525,29.1646322 43.511556,28.9526367 43.388265,28.6324056 L39.7318522,19.1235352 L36.4733886,23.034261 C36.3151042,23.223877 36.0803223,23.3333333 35.8333333,23.3333333 L32.5,23.3333333 C32.0397949,23.3333333 31.6666667,22.9602051 31.6666667,22.5 C31.6666667,22.0397949 32.0397949,21.6666667 32.5,21.6666667 L35.4435221,21.6666667 L39.3599447,16.965739 C39.5495605,16.739502 39.8441569,16.6300456 40.135498,16.6784668 C40.4264323,16.726888 40.6705729,16.9254557 40.7767741,17.2009277 L44.1800944,26.0518392 L46.7240397,19.6907552 C46.8509928,19.3737793 47.1582031,19.1658529 47.5,19.1666667 L49.1666667,19.1666667 C49.6268718,19.1666667 50,19.5397949 50,20 C50,20.4602051 49.6268718,20.8333333 49.1666667,20.8333333 L48.0639648,20.8333333 L44.9409994,28.6425781 C44.8144531,28.9591471 44.5076498,29.1666667 44.1666667,29.1666667 Z" id="Path" fill="#3D9AE2"></path>
                <path d="M32.6582845,24.0083822 C33.7414551,22.9622396 34.1760254,21.4131673 33.7947592,19.9560547 C33.4130859,18.499349 32.2753906,17.3616536 30.8186849,16.9803874 C29.3619792,16.599121 27.8129069,17.0336915 26.7667644,18.116862 L25,19.8832194 L23.2332356,18.116862 C21.5983073,16.5376791 18.9998373,16.5600585 17.3925781,18.1673177 C15.785319,19.7745769 15.7625325,22.3734537 17.3417155,24.0083822 L25,31.6666667 L32.6582845,24.0083822 Z" id="Path" fill="#AB2300"></path>
            </g>
            <text id="SMART-HEART-APP" font-family="HiraKakuPro-W3, Hiragino Kaku Gothic Pro" font-size="15" font-weight="300" fill="#AB2300">
                <tspan x="56" y="27">SMART HEART APP</tspan>
            </text>
        </g>
    </g>
</svg>